# xmcd
#
# Track frame offsets: 
#        150
#        20211
#        33688
#        45481
#        117392
#        165084
#        196635
#        220013
#        243907
#        264162
#        281759
#        320369
#
# Disc length: 4600 seconds
#
# Revision: 0
# Processed by: cddbd v1.5.2PL0 Copyright (c) Steve Scherf et al.
# Submitted via: ExactAudioCopy v0.99pb4
#
DISCID=9d11f60c
DTITLE=Michael Bloomfield - Live At Bill Graham's Fillmore West
DYEAR=1969
DGENRE=Blues
TTITLE0=It Takes Time (missing false start)
TTITLE1=Oh Mama
TTITLE2=Love Got Me
TTITLE3=Blues On A Westside
TTITLE4=One More Mile To Go
TTITLE5=It's About Time
TTITLE6=Carmelita Skiffle
TTITLE7=Killing My Love
TTITLE8=Gypsy Good Time
TTITLE9=Holy Moly
TTITLE10=Moon Tune
TTITLE11=Mary Ann
EXTD=
EXTT0=
EXTT1=
EXTT2=
EXTT3=
EXTT4=
EXTT5=
EXTT6=
EXTT7=
EXTT8=
EXTT9=
EXTT10=
EXTT11=
PLAYORDER=
